<svg width="64" height="64" viewBox="0 0 64 64" fill="none" xmlns="http://www.w3.org/2000/svg">
  <!-- Simplified geometric icon based on the interlocking blocks pattern -->

  <!-- Outer hexagon frame -->
  <path d="M32 4 L56 18 L56 46 L32 60 L8 46 L8 18 Z"
        stroke="#2C5F6F"
        stroke-width="2"
        fill="none"/>

  <!-- Center interlocking blocks - simplified to 3 visible faces -->
  <!-- Left block (teal) -->
  <path d="M22 26 L22 34 L28 38 L28 30 Z"
        fill="#3A7B8F"
        stroke="#1A3A44"
        stroke-width="1"/>
  <path d="M22 26 L28 22 L28 30 L22 34 Z"
        fill="#5A9BAF"
        stroke="#1A3A44"
        stroke-width="1"/>
  <path d="M28 22 L28 30 L34 26 L34 18 Z"
        fill="#2C5F6F"
        stroke="#1A3A44"
        stroke-width="1"/>

  <!-- Right block (tan/gold) -->
  <path d="M36 26 L36 34 L42 38 L42 30 Z"
        fill="#D4B896"
        stroke="#1A3A44"
        stroke-width="1"/>
  <path d="M36 26 L42 22 L42 30 L36 34 Z"
        fill="#E8D4B4"
        stroke="#1A3A44"
        stroke-width="1"/>
  <path d="M30 30 L36 26 L36 34 L30 38 Z"
        fill="#C4A886"
        stroke="#1A3A44"
        stroke-width="1"/>

  <!-- Center block (teal) -->
  <path d="M30 38 L36 34 L36 42 L30 46 Z"
        fill="#3A7B8F"
        stroke="#1A3A44"
        stroke-width="1"/>
  <path d="M36 34 L42 38 L36 42 L30 38 Z"
        fill="#5A9BAF"
        stroke="#1A3A44"
        stroke-width="1"/>

  <!-- Directional arrows (simplified) -->
  <path d="M44 28 L48 32 L44 36"
        stroke="#C4A886"
        stroke-width="1.5"
        fill="none"
        stroke-linecap="round"
        stroke-linejoin="round"/>
  <path d="M20 36 L16 32 L20 28"
        stroke="#C4A886"
        stroke-width="1.5"
        fill="none"
        stroke-linecap="round"
        stroke-linejoin="round"/>
</svg>
